<svg aria-hidden="true" role="graphics-symbol" viewBox="0 0 16 16" class="code" style="width: 16px; height: 16px; display: block; fill: inherit; flex-shrink: 0;"><g><path d="M.056 8.122a.72.72 0 01.07-.306.91.91 0 01.204-.285l3.39-3.05a.745.745 0 01.542-.215.675.675 0 01.505.236c.14.158.202.337.188.537a.737.737 0 01-.264.51L1.855 8.122l2.836 2.573a.737.737 0 01.264.51.716.716 0 01-.188.537.694.694 0 01-.505.242.766.766 0 01-.543-.22L.33 8.708a.87.87 0 01-.204-.274.756.756 0 01-.07-.312zm6.43 5.21a.675.675 0 01-.446-.355.782.782 0 01-.027-.58l2.605-8.942c.068-.226.186-.384.354-.473a.714.714 0 01.559-.054.678.678 0 01.446.344.69.69 0 01.048.553l-2.621 8.98a.738.738 0 01-.35.463.711.711 0 01-.569.064zm9.453-5.21a.695.695 0 01-.065.312.869.869 0 01-.204.274l-3.39 3.056a.773.773 0 01-.547.22.677.677 0 01-.5-.242.707.707 0 01-.193-.537.738.738 0 01.263-.51l2.841-2.573-2.84-2.573a.738.738 0 01-.264-.51.7.7 0 01.193-.537.659.659 0 01.5-.236.75.75 0 01.548.214l3.389 3.051a.91.91 0 01.204.285c.047.1.068.202.064.306z"></path></g></svg>